{"title":"Geronimo, An American Legend 1993 DVDrip English Klam","uid":6439453,"size":1682934061,"categoryP":"video","categoryS":"movies","magnet":"?xt=urn:btih:625aa0a3233e16b2d4bc0c0fef63901ff265c316&amp;dn=Geronimo%2C+An+American+Legend+1993+DVDrip+English+Klam&amp;tr=udp%3A%2F%2Ftracker.openbittorrent.com%3A80&amp;tr=udp%3A%2F%2Fopen.demonii.com%3A1337&amp;tr=udp%3A%2F%2Ftracker.coppersurfer.tk%3A6969&amp;tr=udp%3A%2F%2Fexodus.desync.com%3A6969","seeders":1,"leechers":0,"uploader":"Klambake","files":5,"time":1306938776,"description":"De legendarische Apachehoofdman Geronimo speelde jarenlang een kat- en muisspelletje met het federale Amerikaanse leger, tot hij en 34 medestrijders zich uiteindelijk op 5 september 1886 nabij de Mexicaanse grens overgaven. Bij de arrestatie van Geronimo waren liefst vijfduizend soldaten betrokken, zowat een vierde van de destijds beschikbare troepen. De strijd van Geronimo was een strijd voor het instandhouden van de indiaanse cultuur...\n\nThe Apache Indians have reluctantly agreed to settle on a US Government approved reservation. Not all the Apaches are able to adapt to the life of corn farmers...\n\nGeneral:\n\nComplete name                    : Geronimo\\Geronimo.avi\nFormat                           : AVI\nFormat/Info                      : Audio Video Interleave\nFile size                        : 1.57 GiB\nDuration                         : 1h 50mn\nOverall bit rate                 : 2 033 Kbps\n\nVideo:\n\nFormat                           : MPEG-4 Visual\nFormat profile                   : Simple@L3\nFormat settings, BVOP            : No\nFormat settings, QPel            : No\nFormat settings, GMC             : No warppoints\nFormat settings, Matrix          : Default (H.263)\nCodec ID                         : XVID\nCodec ID/Hint                    : XviD\nDuration                         : 1h 50mn\nBit rate                         : 1 574 Kbps\nWidth                            : 720 pixels\nHeight                           : 328 pixels\nDisplay aspect ratio             : 2.2:1\nFrame rate                       : 25.000 fps\nColor space                      : YUV\nChroma subsampling               : 4:2:0\nBit depth                        : 8 bits\nScan type                        : Progressive\nBits/(Pixel*Frame)               : 0.267\nStream size                      : 1.21 GiB (77%)\nWriting library                  : XviD 1.1.2 (UTC 2006-11-01)\n\nAudio:\n\nFormat                           : AC-3\nFormat/Info                      : Audio Coding 3\nMode extension                   : CM (complete main)\nCodec ID                         : 2000\nDuration                         : 1h 50mn\nBit rate mode                    : Constant\nBit rate                         : 448 Kbps\nChannel(s)                       : 6 channels\nChannel positions                : Front: L C R, Side: L R, LFE\nSampling rate                    : 48.0 KHz\nBit depth                        : 16 bits\nStream size                      : 354 MiB (22%)\nAlignment                        : Aligned on interleaves\nInterleave, duration             : 32 ms (0.80 video frame)\nInterleave, preload duration     : 32 ms\n\n","torrent":{"xt":"urn:btih:625aa0a3233e16b2d4bc0c0fef63901ff265c316","amp;dn":"Geronimo%2C+An+American+Legend+1993+DVDrip+English+Klam","amp;tr":["udp%3A%2F%2Ftracker.openbittorrent.com%3A80","udp%3A%2F%2Fopen.demonii.com%3A1337","udp%3A%2F%2Ftracker.coppersurfer.tk%3A6969","udp%3A%2F%2Fexodus.desync.com%3A6969"],"infoHash":"625aa0a3233e16b2d4bc0c0fef63901ff265c316","infoHashBuffer":{"type":"Buffer","data":[98,90,160,163,35,62,22,178,212,188,12,15,239,99,144,31,242,101,195,22]},"announce":[],"urlList":[]}}